<svg width="245" height="95" viewBox="0 0 245 95" fill="none" xmlns="http://www.w3.org/2000/svg">
<path opacity="0.5" d="M87.918 84H88.758V78.736H84.376V79.856H87.568C87.652 81.676 86.42 83.118 84.362 83.118C82.136 83.118 80.932 81.214 80.932 79.128C80.932 76.986 81.94 74.886 84.362 74.886C85.846 74.886 87.064 75.572 87.33 77.084H88.66C88.282 74.746 86.546 73.766 84.362 73.766C81.198 73.766 79.602 76.286 79.602 79.198C79.602 81.802 81.38 84.238 84.362 84.238C85.538 84.238 86.798 83.804 87.568 82.754L87.918 84ZM95.517 81.704C95.307 82.642 94.621 83.118 93.641 83.118C92.059 83.118 91.345 81.998 91.387 80.738H96.805C96.875 78.988 96.091 76.594 93.529 76.594C91.555 76.594 90.127 78.19 90.127 80.36C90.197 82.572 91.289 84.168 93.599 84.168C95.223 84.168 96.371 83.3 96.693 81.704H95.517ZM91.387 79.688C91.471 78.582 92.213 77.644 93.459 77.644C94.635 77.644 95.489 78.554 95.545 79.688H91.387ZM99.6906 74.592H98.5006V76.762H97.2686V77.812H98.5006V82.418C98.5006 83.748 98.9906 84 100.223 84H101.133V82.95H100.587C99.8446 82.95 99.6906 82.852 99.6906 82.306V77.812H101.133V76.762H99.6906V74.592ZM106.547 84H109.977C113.309 84 114.779 82.11 114.779 78.764C114.779 75.544 113.057 74.004 109.977 74.004H106.547V84ZM107.877 75.124H110.117C112.567 75.124 113.449 76.566 113.449 78.946C113.449 82.628 110.999 82.88 110.089 82.88H107.877V75.124ZM116.279 84H117.469V76.762H116.279V84ZM117.469 74.004H116.279V75.46H117.469V74.004ZM119.27 84H120.46V80.78C120.46 78.946 121.16 77.854 123.078 77.854V76.594C121.79 76.552 120.992 77.126 120.418 78.288H120.39V76.762H119.27V84ZM128.726 81.704C128.516 82.642 127.83 83.118 126.85 83.118C125.268 83.118 124.554 81.998 124.596 80.738H130.014C130.084 78.988 129.3 76.594 126.738 76.594C124.764 76.594 123.336 78.19 123.336 80.36C123.406 82.572 124.498 84.168 126.808 84.168C128.432 84.168 129.58 83.3 129.902 81.704H128.726ZM124.596 79.688C124.68 78.582 125.422 77.644 126.668 77.644C127.844 77.644 128.698 78.554 128.754 79.688H124.596ZM137.394 79.086C137.226 77.364 135.91 76.594 134.272 76.594C131.976 76.594 130.856 78.302 130.856 80.472C130.856 82.628 132.032 84.168 134.244 84.168C136.064 84.168 137.17 83.118 137.436 81.354H136.218C136.064 82.446 135.378 83.118 134.23 83.118C132.718 83.118 132.116 81.802 132.116 80.472C132.116 79.002 132.648 77.644 134.37 77.644C135.35 77.644 135.98 78.176 136.162 79.086H137.394ZM140.419 74.592H139.229V76.762H137.997V77.812H139.229V82.418C139.229 83.748 139.719 84 140.951 84H141.861V82.95H141.315C140.573 82.95 140.419 82.852 140.419 82.306V77.812H141.861V76.762H140.419V74.592ZM143.253 84H144.443V76.762H143.253V84ZM144.443 74.004H143.253V75.46H144.443V74.004ZM145.895 80.388C145.895 82.502 147.113 84.168 149.409 84.168C151.705 84.168 152.923 82.502 152.923 80.388C152.923 78.26 151.705 76.594 149.409 76.594C147.113 76.594 145.895 78.26 145.895 80.388ZM147.155 80.388C147.155 78.624 148.163 77.644 149.409 77.644C150.655 77.644 151.663 78.624 151.663 80.388C151.663 82.138 150.655 83.118 149.409 83.118C148.163 83.118 147.155 82.138 147.155 80.388ZM154.326 84H155.516V79.912C155.516 78.61 156.216 77.644 157.658 77.644C158.568 77.644 159.128 78.218 159.128 79.1V84H160.318V79.24C160.318 77.686 159.73 76.594 157.826 76.594C156.79 76.594 155.978 77.014 155.474 77.91H155.446V76.762H154.326V84ZM161.643 81.718C161.713 83.51 163.085 84.168 164.709 84.168C166.179 84.168 167.789 83.608 167.789 81.886C167.789 80.486 166.613 80.094 165.423 79.828C164.317 79.562 163.057 79.422 163.057 78.568C163.057 77.84 163.883 77.644 164.597 77.644C165.381 77.644 166.193 77.938 166.277 78.862H167.467C167.369 77.098 166.095 76.594 164.499 76.594C163.239 76.594 161.797 77.196 161.797 78.652C161.797 80.038 162.987 80.43 164.163 80.696C165.353 80.962 166.529 81.116 166.529 82.04C166.529 82.95 165.521 83.118 164.779 83.118C163.799 83.118 162.875 82.782 162.833 81.718H161.643Z" fill="white"/>
<path d="M50.1596 45.576H48.5756L45.2796 55.48H45.2476L41.9836 45.576H40.3356L44.3676 57H46.0956L50.1596 45.576ZM55.9938 54.376C55.7538 55.448 54.9698 55.992 53.8498 55.992C52.0418 55.992 51.2258 54.712 51.2738 53.272H57.4658C57.5458 51.272 56.6498 48.536 53.7218 48.536C51.4658 48.536 49.8338 50.36 49.8338 52.84C49.9138 55.368 51.1618 57.192 53.8018 57.192C55.6578 57.192 56.9698 56.2 57.3378 54.376H55.9938ZM51.2738 52.072C51.3698 50.808 52.2178 49.736 53.6418 49.736C54.9858 49.736 55.9618 50.776 56.0258 52.072H51.2738ZM58.9556 57H60.3156V45.576H58.9556V57ZM69.2704 48.728H67.8304L65.5104 55.496H65.4784L63.0624 48.728H61.5264L64.8064 56.952L64.2464 58.36C63.9904 58.84 63.6864 59.112 63.1264 59.112C62.8544 59.112 62.5824 59 62.3264 58.92V60.168C62.6304 60.28 62.9504 60.312 63.2704 60.312C64.4864 60.312 65.0464 59.72 65.6704 58.104L69.2704 48.728ZM70.5024 57H71.8624V53.864L73.1424 52.68L75.9744 57H77.7024L74.1824 51.736L77.4624 48.728H75.6384L71.8624 52.344V45.576H70.5024V57ZM83.8393 54.12C83.8393 54.872 83.1033 55.992 81.3113 55.992C80.4793 55.992 79.7113 55.672 79.7113 54.776C79.7113 53.768 80.4793 53.448 81.3753 53.288C82.2873 53.128 83.3113 53.112 83.8393 52.728V54.12ZM86.0473 55.912C85.8713 55.976 85.7433 55.992 85.6313 55.992C85.1993 55.992 85.1993 55.704 85.1993 55.064V50.808C85.1993 48.872 83.5833 48.536 82.0953 48.536C80.2553 48.536 78.6713 49.256 78.5913 51.304H79.9513C80.0153 50.088 80.8633 49.736 82.0153 49.736C82.8793 49.736 83.8553 49.928 83.8553 51.112C83.8553 52.136 82.5753 52.04 81.0713 52.328C79.6633 52.6 78.2713 53 78.2713 54.872C78.2713 56.52 79.5033 57.192 81.0073 57.192C82.1593 57.192 83.1673 56.792 83.9193 55.912C83.9193 56.808 84.3673 57.192 85.0713 57.192C85.5033 57.192 85.8073 57.112 86.0473 56.968V55.912ZM100.55 45.576H98.9662L95.6702 55.48H95.6382L92.3742 45.576H90.7262L94.7582 57H96.4862L100.55 45.576ZM105.792 54.12C105.792 54.872 105.056 55.992 103.264 55.992C102.432 55.992 101.664 55.672 101.664 54.776C101.664 53.768 102.432 53.448 103.328 53.288C104.24 53.128 105.264 53.112 105.792 52.728V54.12ZM108 55.912C107.824 55.976 107.696 55.992 107.584 55.992C107.152 55.992 107.152 55.704 107.152 55.064V50.808C107.152 48.872 105.536 48.536 104.048 48.536C102.208 48.536 100.624 49.256 100.544 51.304H101.904C101.968 50.088 102.816 49.736 103.968 49.736C104.832 49.736 105.808 49.928 105.808 51.112C105.808 52.136 104.528 52.04 103.024 52.328C101.616 52.6 100.224 53 100.224 54.872C100.224 56.52 101.456 57.192 102.96 57.192C104.112 57.192 105.12 56.792 105.872 55.912C105.872 56.808 106.32 57.192 107.024 57.192C107.456 57.192 107.76 57.112 108 56.968V55.912ZM108.738 54.392C108.818 56.44 110.386 57.192 112.242 57.192C113.922 57.192 115.762 56.552 115.762 54.584C115.762 52.984 114.418 52.536 113.058 52.232C111.794 51.928 110.354 51.768 110.354 50.792C110.354 49.96 111.298 49.736 112.114 49.736C113.01 49.736 113.938 50.072 114.034 51.128H115.394C115.282 49.112 113.826 48.536 112.002 48.536C110.562 48.536 108.914 49.224 108.914 50.888C108.914 52.472 110.274 52.92 111.618 53.224C112.978 53.528 114.322 53.704 114.322 54.76C114.322 55.8 113.17 55.992 112.322 55.992C111.202 55.992 110.146 55.608 110.098 54.392H108.738ZM124.114 48.728H122.674L120.354 55.496H120.322L117.906 48.728H116.37L119.65 56.952L119.09 58.36C118.834 58.84 118.53 59.112 117.97 59.112C117.698 59.112 117.426 59 117.17 58.92V60.168C117.474 60.28 117.794 60.312 118.114 60.312C119.33 60.312 119.89 59.72 120.514 58.104L124.114 48.728ZM125.346 57H126.706V45.576H125.346V57ZM128.893 57H130.253V53.864L131.533 52.68L134.365 57H136.093L132.573 51.736L135.853 48.728H134.029L130.253 52.344V45.576H128.893V57ZM137.19 57H138.55V48.728H137.19V57ZM138.55 45.576H137.19V47.24H138.55V45.576ZM147.409 48.728H145.985L143.729 55.624H143.697L141.377 48.728H139.857L142.929 57H144.385L147.409 48.728ZM148.129 54.392C148.209 56.44 149.777 57.192 151.633 57.192C153.313 57.192 155.153 56.552 155.153 54.584C155.153 52.984 153.809 52.536 152.449 52.232C151.185 51.928 149.745 51.768 149.745 50.792C149.745 49.96 150.689 49.736 151.505 49.736C152.401 49.736 153.329 50.072 153.425 51.128H154.785C154.673 49.112 153.217 48.536 151.393 48.536C149.953 48.536 148.305 49.224 148.305 50.888C148.305 52.472 149.665 52.92 151.009 53.224C152.369 53.528 153.713 53.704 153.713 54.76C153.713 55.8 152.561 55.992 151.713 55.992C150.593 55.992 149.537 55.608 149.489 54.392H148.129ZM156.737 57H158.097V53.864L159.377 52.68L162.209 57H163.937L160.417 51.736L163.697 48.728H161.873L158.097 52.344V45.576H156.737V57ZM170.074 54.12C170.074 54.872 169.338 55.992 167.546 55.992C166.714 55.992 165.946 55.672 165.946 54.776C165.946 53.768 166.714 53.448 167.61 53.288C168.522 53.128 169.546 53.112 170.074 52.728V54.12ZM172.282 55.912C172.106 55.976 171.978 55.992 171.866 55.992C171.434 55.992 171.434 55.704 171.434 55.064V50.808C171.434 48.872 169.818 48.536 168.33 48.536C166.49 48.536 164.906 49.256 164.826 51.304H166.186C166.25 50.088 167.098 49.736 168.25 49.736C169.114 49.736 170.09 49.928 170.09 51.112C170.09 52.136 168.81 52.04 167.306 52.328C165.898 52.6 164.506 53 164.506 54.872C164.506 56.52 165.738 57.192 167.242 57.192C168.394 57.192 169.402 56.792 170.154 55.912C170.154 56.808 170.602 57.192 171.306 57.192C171.738 57.192 172.042 57.112 172.282 56.968V55.912ZM182.673 45.656H181.633C181.329 47.368 179.921 47.784 178.369 47.784V48.872H181.313V57H182.673V45.656ZM186.539 51.432C186.539 53.928 186.763 57.192 190.315 57.192C193.867 57.192 194.091 53.928 194.091 51.432C194.091 48.92 193.867 45.656 190.315 45.656C186.763 45.656 186.539 48.92 186.539 51.432ZM187.979 51.416C187.979 49.736 187.995 46.856 190.315 46.856C192.635 46.856 192.651 49.736 192.651 51.416C192.651 53.112 192.635 55.992 190.315 55.992C187.995 55.992 187.979 53.112 187.979 51.416ZM195.43 51.432C195.43 53.928 195.654 57.192 199.206 57.192C202.758 57.192 202.982 53.928 202.982 51.432C202.982 48.92 202.758 45.656 199.206 45.656C195.654 45.656 195.43 48.92 195.43 51.432ZM196.87 51.416C196.87 49.736 196.886 46.856 199.206 46.856C201.526 46.856 201.542 49.736 201.542 51.416C201.542 53.112 201.526 55.992 199.206 55.992C196.886 55.992 196.87 53.112 196.87 51.416Z" fill="white"/>
<mask id="mask0_2_180" style="mask-type:luminance" maskUnits="userSpaceOnUse" x="114" y="4" width="18" height="18">
<path fill-rule="evenodd" clip-rule="evenodd" d="M132 4L114 11.53V12.51L120.84 15.16L123.48 22H124.46L132 4Z" fill="white"/>
</mask>
<g mask="url(#mask0_2_180)">
<rect x="110" width="26" height="26" fill="white" fill-opacity="0.5"/>
</g>
</svg>
