<svg width="245" height="95" viewBox="0 0 245 95" fill="none" xmlns="http://www.w3.org/2000/svg">
<path opacity="0.5" d="M90.6925 77.004H89.3625L87.3325 85.32H87.3045L85.0925 77.004H83.6505L81.4105 85.32H81.3825L79.4225 77.004H78.0645L80.6265 87H82.0125L84.3225 78.6H84.3505L86.6325 87H88.0185L90.6925 77.004ZM90.5685 83.388C90.5685 85.502 91.7865 87.168 94.0825 87.168C96.3785 87.168 97.5965 85.502 97.5965 83.388C97.5965 81.26 96.3785 79.594 94.0825 79.594C91.7865 79.594 90.5685 81.26 90.5685 83.388ZM91.8285 83.388C91.8285 81.624 92.8365 80.644 94.0825 80.644C95.3285 80.644 96.3365 81.624 96.3365 83.388C96.3365 85.138 95.3285 86.118 94.0825 86.118C92.8365 86.118 91.8285 85.138 91.8285 83.388ZM98.9575 87H100.148V83.78C100.148 81.946 100.848 80.854 102.766 80.854V79.594C101.478 79.552 100.68 80.126 100.106 81.288H100.078V79.762H98.9575V87ZM103.732 87H104.922V84.256L106.042 83.22L108.52 87H110.032L106.952 82.394L109.822 79.762H108.226L104.922 82.926V77.004H103.732V87ZM110.991 87H112.181V79.762H110.991V87ZM112.181 77.004H110.991V78.46H112.181V77.004ZM114.025 87H115.215V82.912C115.215 81.61 115.915 80.644 117.357 80.644C118.267 80.644 118.827 81.218 118.827 82.1V87H120.017V82.24C120.017 80.686 119.429 79.594 117.525 79.594C116.489 79.594 115.677 80.014 115.173 80.91H115.145V79.762H114.025V87ZM124.716 86.034C123.148 86.034 122.672 84.578 122.672 83.276C122.672 81.89 123.288 80.644 124.814 80.644C126.312 80.644 126.872 81.96 126.872 83.234C126.872 84.592 126.284 86.034 124.716 86.034ZM128.048 79.762H126.928V80.798H126.914C126.48 80 125.668 79.594 124.758 79.594C122.252 79.594 121.412 81.708 121.412 83.416C121.412 85.39 122.49 87.084 124.646 87.084C125.556 87.084 126.508 86.65 126.9 85.768H126.928V86.244C126.928 87.868 126.312 88.988 124.758 88.988C123.974 88.988 122.938 88.68 122.882 87.812H121.692C121.762 89.394 123.33 89.94 124.688 89.94C126.97 89.94 128.048 88.736 128.048 86.384V79.762ZM133.74 87H134.93V82.912C134.93 81.61 135.63 80.644 137.072 80.644C137.982 80.644 138.542 81.218 138.542 82.1V87H139.732V82.24C139.732 80.686 139.144 79.594 137.24 79.594C136.372 79.594 135.35 79.958 134.958 80.826H134.93V77.004H133.74V87ZM141.127 83.388C141.127 85.502 142.345 87.168 144.641 87.168C146.937 87.168 148.155 85.502 148.155 83.388C148.155 81.26 146.937 79.594 144.641 79.594C142.345 79.594 141.127 81.26 141.127 83.388ZM142.387 83.388C142.387 81.624 143.395 80.644 144.641 80.644C145.887 80.644 146.895 81.624 146.895 83.388C146.895 85.138 145.887 86.118 144.641 86.118C143.395 86.118 142.387 85.138 142.387 83.388ZM155.55 79.762H154.36V83.85C154.36 85.152 153.66 86.118 152.218 86.118C151.308 86.118 150.748 85.544 150.748 84.662V79.762H149.558V84.522C149.558 86.076 150.146 87.168 152.05 87.168C153.086 87.168 153.898 86.748 154.402 85.852H154.43V87H155.55V79.762ZM157.295 87H158.485V83.78C158.485 81.946 159.185 80.854 161.103 80.854V79.594C159.815 79.552 159.017 80.126 158.443 81.288H158.415V79.762H157.295V87ZM161.538 84.718C161.608 86.51 162.98 87.168 164.604 87.168C166.074 87.168 167.684 86.608 167.684 84.886C167.684 83.486 166.508 83.094 165.318 82.828C164.212 82.562 162.952 82.422 162.952 81.568C162.952 80.84 163.778 80.644 164.492 80.644C165.276 80.644 166.088 80.938 166.172 81.862H167.362C167.264 80.098 165.99 79.594 164.394 79.594C163.134 79.594 161.692 80.196 161.692 81.652C161.692 83.038 162.882 83.43 164.058 83.696C165.248 83.962 166.424 84.116 166.424 85.04C166.424 85.95 165.416 86.118 164.674 86.118C163.694 86.118 162.77 85.782 162.728 84.718H161.538Z" fill="white"/>
<path d="M32.5119 60H34.0319V49.856H37.8399V48.576H28.7039V49.856H32.5119V60ZM36.6541 55.872C36.6541 58.288 38.0461 60.192 40.6701 60.192C43.2941 60.192 44.6861 58.288 44.6861 55.872C44.6861 53.44 43.2941 51.536 40.6701 51.536C38.0461 51.536 36.6541 53.44 36.6541 55.872ZM38.0941 55.872C38.0941 53.856 39.2461 52.736 40.6701 52.736C42.0941 52.736 43.2461 53.856 43.2461 55.872C43.2461 57.872 42.0941 58.992 40.6701 58.992C39.2461 58.992 38.0941 57.872 38.0941 55.872ZM53.6816 48.576H52.3216V52.832H52.2896C51.6816 51.856 50.4656 51.536 49.6176 51.536C47.0896 51.536 45.8416 53.504 45.8416 55.84C45.8416 58.176 47.1056 60.192 49.6496 60.192C50.7856 60.192 51.8416 59.792 52.2896 58.88H52.3216V60H53.6816V48.576ZM47.2816 55.936C47.2816 54.32 47.9056 52.736 49.7616 52.736C51.6336 52.736 52.3696 54.24 52.3696 55.872C52.3696 57.424 51.6656 58.992 49.8416 58.992C48.0816 58.992 47.2816 57.488 47.2816 55.936ZM60.894 57.12C60.894 57.872 60.158 58.992 58.366 58.992C57.534 58.992 56.766 58.672 56.766 57.776C56.766 56.768 57.534 56.448 58.43 56.288C59.342 56.128 60.366 56.112 60.894 55.728V57.12ZM63.102 58.912C62.926 58.976 62.798 58.992 62.686 58.992C62.254 58.992 62.254 58.704 62.254 58.064V53.808C62.254 51.872 60.638 51.536 59.15 51.536C57.31 51.536 55.726 52.256 55.646 54.304H57.006C57.07 53.088 57.918 52.736 59.07 52.736C59.934 52.736 60.91 52.928 60.91 54.112C60.91 55.136 59.63 55.04 58.126 55.328C56.718 55.6 55.326 56 55.326 57.872C55.326 59.52 56.558 60.192 58.062 60.192C59.214 60.192 60.222 59.792 60.974 58.912C60.974 59.808 61.422 60.192 62.126 60.192C62.558 60.192 62.862 60.112 63.102 59.968V58.912ZM71.2158 51.728H69.7758L67.4557 58.496H67.4238L65.0078 51.728H63.4718L66.7518 59.952L66.1918 61.36C65.9358 61.84 65.6318 62.112 65.0718 62.112C64.7998 62.112 64.5278 62 64.2718 61.92V63.168C64.5758 63.28 64.8958 63.312 65.2158 63.312C66.4318 63.312 66.9918 62.72 67.6158 61.104L71.2158 51.728ZM81.4929 48.656H80.4529C80.1489 50.368 78.7409 50.784 77.1889 50.784V51.872H80.1329V60H81.4929V48.656ZM85.3595 54.432C85.3595 56.928 85.5835 60.192 89.1355 60.192C92.6875 60.192 92.9115 56.928 92.9115 54.432C92.9115 51.92 92.6875 48.656 89.1355 48.656C85.5835 48.656 85.3595 51.92 85.3595 54.432ZM86.7995 54.416C86.7995 52.736 86.8155 49.856 89.1355 49.856C91.4555 49.856 91.4715 52.736 91.4715 54.416C91.4715 56.112 91.4555 58.992 89.1355 58.992C86.8155 58.992 86.7995 56.112 86.7995 54.416ZM94.9061 60H96.6821V58.224H94.9061V60ZM96.6821 51.728H94.9061V53.504H96.6821V51.728ZM98.7033 54.432C98.7033 56.928 98.9273 60.192 102.479 60.192C106.031 60.192 106.255 56.928 106.255 54.432C106.255 51.92 106.031 48.656 102.479 48.656C98.9273 48.656 98.7033 51.92 98.7033 54.432ZM100.143 54.416C100.143 52.736 100.159 49.856 102.479 49.856C104.799 49.856 104.815 52.736 104.815 54.416C104.815 56.112 104.799 58.992 102.479 58.992C100.159 58.992 100.143 56.112 100.143 54.416ZM107.594 54.432C107.594 56.928 107.818 60.192 111.37 60.192C114.922 60.192 115.146 56.928 115.146 54.432C115.146 51.92 114.922 48.656 111.37 48.656C107.818 48.656 107.594 51.92 107.594 54.432ZM109.034 54.416C109.034 52.736 109.05 49.856 111.37 49.856C113.69 49.856 113.706 52.736 113.706 54.416C113.706 56.112 113.69 58.992 111.37 58.992C109.05 58.992 109.034 56.112 109.034 54.416ZM126.41 57.12C126.41 57.872 125.674 58.992 123.882 58.992C123.05 58.992 122.282 58.672 122.282 57.776C122.282 56.768 123.05 56.448 123.946 56.288C124.858 56.128 125.882 56.112 126.41 55.728V57.12ZM128.618 58.912C128.442 58.976 128.314 58.992 128.202 58.992C127.77 58.992 127.77 58.704 127.77 58.064V53.808C127.77 51.872 126.154 51.536 124.666 51.536C122.826 51.536 121.242 52.256 121.162 54.304H122.522C122.586 53.088 123.434 52.736 124.586 52.736C125.45 52.736 126.426 52.928 126.426 54.112C126.426 55.136 125.146 55.04 123.642 55.328C122.234 55.6 120.842 56 120.842 57.872C120.842 59.52 122.074 60.192 123.578 60.192C124.73 60.192 125.738 59.792 126.49 58.912C126.49 59.808 126.938 60.192 127.642 60.192C128.074 60.192 128.378 60.112 128.618 59.968V58.912ZM129.883 60H131.243V54.848C131.243 54.224 131.835 52.736 133.451 52.736C134.667 52.736 135.003 53.504 135.003 54.576V60H136.363V54.848C136.363 53.568 137.211 52.736 138.523 52.736C139.851 52.736 140.123 53.552 140.123 54.576V60H141.483V53.936C141.483 52.224 140.379 51.536 138.731 51.536C137.675 51.536 136.699 52.064 136.139 52.944C135.803 51.936 134.875 51.536 133.867 51.536C132.731 51.536 131.803 52.016 131.195 52.944H131.163V51.728H129.883V60ZM147.753 56.192H152.377V54.912H147.753V56.192ZM165.769 48.848H158.425V50.128H164.377C161.993 52.656 160.153 56.16 159.897 60H161.417C161.625 56.448 163.481 52.288 165.769 50.016V48.848ZM167.844 60H169.62V58.224H167.844V60ZM169.62 51.728H167.844V53.504H169.62V51.728ZM171.641 54.432C171.641 56.928 171.865 60.192 175.417 60.192C178.969 60.192 179.193 56.928 179.193 54.432C179.193 51.92 178.969 48.656 175.417 48.656C171.865 48.656 171.641 51.92 171.641 54.432ZM173.081 54.416C173.081 52.736 173.097 49.856 175.417 49.856C177.737 49.856 177.753 52.736 177.753 54.416C177.753 56.112 177.737 58.992 175.417 58.992C173.097 58.992 173.081 56.112 173.081 54.416ZM180.531 54.432C180.531 56.928 180.755 60.192 184.307 60.192C187.859 60.192 188.083 56.928 188.083 54.432C188.083 51.92 187.859 48.656 184.307 48.656C180.755 48.656 180.531 51.92 180.531 54.432ZM181.971 54.416C181.971 52.736 181.987 49.856 184.307 49.856C186.627 49.856 186.643 52.736 186.643 54.416C186.643 56.112 186.627 58.992 184.307 58.992C181.987 58.992 181.971 56.112 181.971 54.416ZM200.675 55.792C200.675 57.408 200.051 58.992 198.195 58.992C196.323 58.992 195.587 57.488 195.587 55.856C195.587 54.304 196.291 52.736 198.115 52.736C199.875 52.736 200.675 54.24 200.675 55.792ZM194.275 63.168H195.635V58.896H195.667C196.275 59.872 197.491 60.192 198.339 60.192C200.867 60.192 202.115 58.224 202.115 55.888C202.115 53.552 200.851 51.536 198.307 51.536C197.171 51.536 196.115 51.936 195.667 52.848H195.635V51.728H194.275V63.168ZM203.712 60H205.072V54.848C205.072 54.224 205.664 52.736 207.28 52.736C208.496 52.736 208.832 53.504 208.832 54.576V60H210.192V54.848C210.192 53.568 211.04 52.736 212.352 52.736C213.68 52.736 213.952 53.552 213.952 54.576V60H215.312V53.936C215.312 52.224 214.208 51.536 212.56 51.536C211.503 51.536 210.528 52.064 209.968 52.944C209.632 51.936 208.704 51.536 207.696 51.536C206.56 51.536 205.632 52.016 205.024 52.944H204.992V51.728H203.712V60Z" fill="white"/>
<mask id="mask0_2_187" style="mask-type:luminance" maskUnits="userSpaceOnUse" x="112" y="5" width="21" height="20">
<path fill-rule="evenodd" clip-rule="evenodd" d="M122.5 5C116.977 5 112.459 9.5 112.459 15C112.459 20.5 116.977 25 122.5 25C128.023 25 132.541 20.5 132.541 15C132.541 9.5 128.023 5 122.5 5ZM126.717 19.2L121.496 16V10H123.002V15.2L127.52 17.9L126.717 19.2Z" fill="white"/>
</mask>
<g mask="url(#mask0_2_187)">
<rect x="109.447" y="2" width="26.1066" height="26" fill="white" fill-opacity="0.5"/>
</g>
</svg>
